# xmcd
#
# Track frame offsets:
#	150
#	12817
#	23361
#	34258
#	44722
#	54326
#	65863
#	79725
#	89094
#	100998
#	113319
#	125146
#
# Disc length: 1799 seconds
#
# Revision: 0
# Processed by: cddbd v1.5.1PL0 Copyright (c) Steve Scherf et al.
# Submitted via: dBpowerAMP V4.0
#
DISCID=9b07050c
DTITLE=Merle Haggard and Bonnie Owens - Just Between The Two Of Us
DYEAR=1966
DGENRE=Country
TTITLE0=Just Between The Two Of Us
TTITLE1=A House Without Love Is Not A Home
TTITLE2=Slowly But Surely
TTITLE3=Our Hearts Are Holding Hands
TTITLE4=I Wanna Live Again
TTITLE5=Forever And Ever
TTITLE6=That Makes Two Of Us
TTITLE7=I'll Take A Chance
TTITLE8=Stranger In My Arms
TTITLE9=Too Used To Being With You
TTITLE10=So Much For Me, So Much For You
TTITLE11=Wait A Little Longer, Please Jesus
EXTD=Submitted faithfully by +Sound Man+\nPlease visit my Merle Haggard Discography site at:\nhttp://www.angelfire.com/stars4/anxietyfriend/merlehaggard.htm
EXTT0=
EXTT1=
EXTT2=
EXTT3=
EXTT4=
EXTT5=
EXTT6=
EXTT7=
EXTT8=
EXTT9=
EXTT10=
EXTT11=
PLAYORDER=
